<?xml version="1.0" standalone="no"?>
<!DOCTYPE svg PUBLIC "-//W3C//DTD SVG 20010904//EN"
 "http://www.w3.org/TR/2001/REC-SVG-20010904/DTD/svg10.dtd">
<svg version="1.0" xmlns="http://www.w3.org/2000/svg"
 width="204.000000pt" height="204.000000pt" viewBox="0 0 204.000000 204.000000"
 preserveAspectRatio="xMidYMid meet">
<metadata>
Created by potrace 1.14, written by Peter Selinger 2001-2017
</metadata>
<g transform="translate(0.000000,204.000000) scale(0.100000,-0.100000)"
fill="#000000" stroke="none">
<path d="M553 1759 c-99 -19 -153 -64 -160 -131 -5 -50 18 -101 58 -131 39
-28 132 -47 235 -47 50 0 105 -3 122 -6 l31 -6 3 -547 c3 -545 3 -546 26 -588
29 -54 57 -73 124 -80 72 -7 119 13 155 68 l28 43 7 545 c4 300 5 552 3 559
-3 8 7 12 28 13 159 3 326 17 351 30 69 34 94 119 55 188 -29 52 -86 81 -182
92 -93 11 -829 9 -884 -2z"/>
</g>
</svg>
